<mxfile host="app.diagrams.net" modified="2023-03-28T12:03:20.446Z" agent="Mozilla/5.0 (Windows NT 10.0; Win64; x64) AppleWebKit/537.36 (KHTML, like Gecko) Chrome/111.0.0.0 Safari/537.36" version="21.1.1" etag="unpOFfTVOx2HFGtJYtmT" type="github">
  <diagram name="PÃ¡gina-1" id="A40uEls-yv_RxPFXnGYB">
    <mxGraphModel>
      <root>
        <mxCell id="0" />
        <mxCell id="1" parent="0" />
      </root>
    </mxGraphModel>
  </diagram>
</mxfile>
